<?xml version="1.0" encoding="UTF-8"?>
<!DOCTYPE svg PUBLIC "-//W3C//DTD SVG 1.1//EN" "http://www.w3.org/Graphics/SVG/1.1/DTD/svg11.dtd">
<svg xmlns="http://www.w3.org/2000/svg" version="1.1" width="114px" height="95px" style="shape-rendering:geometricPrecision; text-rendering:geometricPrecision; image-rendering:optimizeQuality; fill-rule:evenodd; clip-rule:evenodd" xmlns:xlink="http://www.w3.org/1999/xlink">
<g><path style="opacity:0.719" fill="#eaf4e7" d="M 87.5,8.5 C 89.7458,14.4906 92.4125,14.8239 95.5,9.5C 98.4232,10.542 101.09,11.8754 103.5,13.5C 103.479,16.6737 103.146,20.007 102.5,23.5C 99.7877,24.212 98.1211,25.8787 97.5,28.5C 96.089,26.461 94.089,25.461 91.5,25.5C 91.762,24.0222 91.4287,22.6888 90.5,21.5C 89.3744,22.8084 89.3744,24.1417 90.5,25.5C 88.1667,24.1667 85.8333,24.1667 83.5,25.5C 83.3718,23.9102 82.7051,22.5769 81.5,21.5C 80.2121,23.2985 80.2121,24.9652 81.5,26.5C 79.7798,27.3077 78.1131,28.3077 76.5,29.5C 75.7456,27.5541 74.4122,26.7207 72.5,27C 73.2666,28.4705 73.9332,29.9705 74.5,31.5C 74.1667,32.5 73.5,33.1667 72.5,33.5C 71.8333,32.5 71.1667,31.5 70.5,30.5C 69.8505,28.5648 69.5172,26.5648 69.5,24.5C 67.5,24.5 65.5,24.5 63.5,24.5C 62.8333,26.8333 62.1667,29.1667 61.5,31.5C 61.1249,29.3024 60.4582,27.3024 59.5,25.5C 61.1667,23.5 62.8333,21.5 64.5,19.5C 65.9187,20.4511 67.5853,20.7845 69.5,20.5C 69.7845,18.5853 69.4511,16.9187 68.5,15.5C 70.4632,14.1798 72.4632,12.8465 74.5,11.5C 75.937,12.7255 77.6036,13.7255 79.5,14.5C 80.3199,12.6812 81.3199,11.0145 82.5,9.5C 84.1172,8.962 85.7839,8.62867 87.5,8.5 Z M 84.5,11.5 C 88.9273,14.2728 89.4273,17.6062 86,21.5C 84.437,20.2748 83.2703,18.7748 82.5,17C 83.3195,15.1997 83.9862,13.3664 84.5,11.5 Z M 96.5,14.5 C 97.7777,14.7822 98.7777,15.4489 99.5,16.5C 99.7678,18.099 99.4345,19.4324 98.5,20.5C 95.5717,21.513 94.2384,20.1797 94.5,16.5C 94.8333,15.5 95.5,14.8333 96.5,14.5 Z"/></g>
<g><path style="opacity:0.999" fill="#4472c4" d="M 55.5,33.5 C 55.5,34.1667 55.5,34.8333 55.5,35.5C 55.4828,37.5648 55.1495,39.5648 54.5,41.5C 51.5605,47.8789 48.2272,54.0456 44.5,60C 46.2495,61.3186 48.2495,61.8186 50.5,61.5C 52.5,61.5 54.5,61.5 56.5,61.5C 56.5,62.1667 56.5,62.8333 56.5,63.5C 56.5,69.8333 56.5,76.1667 56.5,82.5C 40.4965,82.6666 24.4965,82.4999 8.5,82C 17.8188,65.8632 26.4855,49.3632 34.5,32.5C 32.2248,28.035 29.0581,27.3683 25,30.5C 23.1706,32.8935 23.3373,35.2268 25.5,37.5C 22.8403,43.4897 19.6736,49.1564 16,54.5C 3.77775,45.2794 0.77775,33.6127 7,19.5C 15.7216,7.10845 27.2216,3.60845 41.5,9C 51.1987,14.2245 55.8653,22.3912 55.5,33.5 Z"/></g>
<g><path style="opacity:1" fill="#50b53b" d="M 87.5,8.5 C 90.1667,8.83333 92.8333,9.16667 95.5,9.5C 92.4125,14.8239 89.7458,14.4906 87.5,8.5 Z"/></g>
<g><path style="opacity:1" fill="#40b02b" d="M 82.5,9.5 C 81.3199,11.0145 80.3199,12.6812 79.5,14.5C 77.6036,13.7255 75.937,12.7255 74.5,11.5C 77.1123,10.6295 79.779,9.96283 82.5,9.5 Z"/></g>
<g><path style="opacity:0.302" fill="#a2d494" d="M 99.5,16.5 C 98.7777,15.4489 97.7777,14.7822 96.5,14.5C 96.811,13.5222 97.4777,12.8555 98.5,12.5C 99.4287,13.6888 99.762,15.0222 99.5,16.5 Z"/></g>
<g><path style="opacity:0.994" fill="#47b131" d="M 103.5,13.5 C 107.145,15.1449 109.812,17.8116 111.5,21.5C 109.36,24.8073 107.026,27.974 104.5,31C 101.793,31.3174 99.4597,30.4841 97.5,28.5C 98.1211,25.8787 99.7877,24.212 102.5,23.5C 103.146,20.007 103.479,16.6737 103.5,13.5 Z"/></g>
<g><path style="opacity:1" fill="#39ae25" d="M 72.5,15.5 C 78.8112,16.6489 80.3112,19.9822 77,25.5C 75.8455,24.2567 74.5122,23.2567 73,22.5C 72.5034,20.1902 72.3367,17.8568 72.5,15.5 Z"/></g>
<g><path style="opacity:1" fill="#2fad20" d="M 68.5,15.5 C 69.4511,16.9187 69.7845,18.5853 69.5,20.5C 67.5853,20.7845 65.9187,20.4511 64.5,19.5C 65.8333,18.1667 67.1667,16.8333 68.5,15.5 Z"/></g>
<g><path style="opacity:0.251" fill="#50b53b" d="M 94.5,16.5 C 94.2384,20.1797 95.5717,21.513 98.5,20.5C 95.5063,24.9582 93.8396,24.4582 93.5,19C 93.528,17.9302 93.8614,17.0968 94.5,16.5 Z"/></g>
<g><path style="opacity:1" fill="#4ab235" d="M 91.5,25.5 C 91.1667,25.5 90.8333,25.5 90.5,25.5C 89.3744,24.1417 89.3744,22.8084 90.5,21.5C 91.4287,22.6888 91.762,24.0222 91.5,25.5 Z"/></g>
<g><path style="opacity:1" fill="#6fbe60" d="M 83.5,25.5 C 83.1583,26.3382 82.4916,26.6716 81.5,26.5C 80.2121,24.9652 80.2121,23.2985 81.5,21.5C 82.7051,22.5769 83.3718,23.9102 83.5,25.5 Z"/></g>
<g><path style="opacity:1" fill="#41b02e" d="M 76.5,29.5 C 76.1667,30.5 75.5,31.1667 74.5,31.5C 73.9332,29.9705 73.2666,28.4705 72.5,27C 74.4122,26.7207 75.7456,27.5541 76.5,29.5 Z"/></g>
<g><path style="opacity:1" fill="#3cae27" d="M 63.5,24.5 C 65.5,24.5 67.5,24.5 69.5,24.5C 69.5172,26.5648 69.8505,28.5648 70.5,30.5C 64.6735,33.0207 62.3401,31.0207 63.5,24.5 Z"/></g>
<g><path style="opacity:0.925" fill="#daedd6" d="M 63.5,24.5 C 62.3401,31.0207 64.6735,33.0207 70.5,30.5C 71.1667,31.5 71.8333,32.5 72.5,33.5C 72.7373,34.791 72.404,35.791 71.5,36.5C 70.2486,34.439 68.5819,34.1057 66.5,35.5C 66.6236,36.1067 66.9569,36.44 67.5,36.5C 68.1667,37.8333 69.1667,38.8333 70.5,39.5C 69.8153,41.4144 69.3153,43.4144 69,45.5C 67.4931,44.4652 65.9931,44.6319 64.5,46C 65.6526,47.883 67.3193,48.7163 69.5,48.5C 69.5,49.5 69.5,50.5 69.5,51.5C 66.646,51.0761 63.9793,50.0761 61.5,48.5C 57.9648,50.9023 55.9648,54.2356 55.5,58.5C 54.7171,56.6568 54.0505,54.6568 53.5,52.5C 55.3722,50.4649 57.0389,48.2983 58.5,46C 57.6853,44.0198 56.352,42.5198 54.5,41.5C 55.1495,39.5648 55.4828,37.5648 55.5,35.5C 57.8525,34.6597 59.8525,33.3264 61.5,31.5C 62.1667,29.1667 62.8333,26.8333 63.5,24.5 Z M 57.5,39.5 C 58.5,39.1667 59.1667,38.5 59.5,37.5C 62.4108,35.9917 64.7441,36.825 66.5,40C 63.0855,44.7412 60.0855,44.5746 57.5,39.5 Z"/></g>
<g><path style="opacity:0.992" fill="#49b135" d="M 59.5,25.5 C 60.4582,27.3024 61.1249,29.3024 61.5,31.5C 59.8525,33.3264 57.8525,34.6597 55.5,35.5C 55.5,34.8333 55.5,34.1667 55.5,33.5C 57.0114,30.9949 58.3447,28.3283 59.5,25.5 Z"/></g>
<g><path style="opacity:0.357" fill="#5ab744" d="M 71.5,36.5 C 71.7373,37.791 71.404,38.791 70.5,39.5C 69.1667,38.8333 68.1667,37.8333 67.5,36.5C 66.9569,36.44 66.6236,36.1067 66.5,35.5C 68.5819,34.1057 70.2486,34.439 71.5,36.5 Z"/></g>
<g><path style="opacity:0.043" fill="#3dad2a" d="M 59.5,37.5 C 59.1667,38.5 58.5,39.1667 57.5,39.5C 57.0618,39.5654 56.7284,39.3988 56.5,39C 57.2438,37.9614 58.2438,37.4614 59.5,37.5 Z"/></g>
<g><path style="opacity:0.271" fill="#c5d5d9" d="M 55.5,58.5 C 56.404,59.209 56.7373,60.209 56.5,61.5C 54.5,61.5 52.5,61.5 50.5,61.5C 52.5313,61.0276 54.1979,60.0276 55.5,58.5 Z"/></g>
<g><path style="opacity:1" fill="#45b130" d="M 69.5,51.5 C 76.3381,69.3345 87.5048,72.6679 103,61.5C 106.605,64.4323 109.439,67.9323 111.5,72C 102.919,83.6544 91.5856,87.3211 77.5,83C 68.3664,78.6964 61.3664,72.1964 56.5,63.5C 56.5,62.8333 56.5,62.1667 56.5,61.5C 56.7373,60.209 56.404,59.209 55.5,58.5C 55.9648,54.2356 57.9648,50.9023 61.5,48.5C 63.9793,50.0761 66.646,51.0761 69.5,51.5 Z M 61.5,54.5 C 63.5891,54.8567 65.5891,55.5233 67.5,56.5C 75.5614,73.8003 87.3947,77.1337 103,66.5C 104.685,68.0175 106.185,69.6841 107.5,71.5C 97.0735,81.6487 85.4068,83.1487 72.5,76C 67.0302,71.5362 62.6969,66.2028 59.5,60C 60.464,58.2745 61.1307,56.4412 61.5,54.5 Z"/></g>
</svg>
